ModelForces
version=1
nRows=4
nColumns=157
inDegrees=no

This file contains the forces exerted on a model during a simulation.

A force is a generalized force, meaning that it can be either a force (N) or a torque (Nm).

Units are S.I. units (second, meters, Newtons, ...)
Angles are in degrees.

endheader
time	glut_med1_r	glut_med2_r	glut_med3_r	glut_min1_r	glut_min2_r	glut_min3_r	semimem_r	semiten_r	bifemlh_r	bifemsh_r	sar_r	add_long_r	add_brev_r	add_mag1_r	add_mag2_r	add_mag3_r	tfl_r	pect_r	grac_r	glut_max1_r	glut_max2_r	glut_max3_r	iliacus_r	psoas_r	quad_fem_r	gem_r	peri_r	rect_fem_r	vas_med_r	vas_int_r	vas_lat_r	med_gas_r	lat_gas_r	soleus_r	tib_post_r	flex_dig_r	flex_hal_r	tib_ant_r	per_brev_r	per_long_r	per_tert_r	ext_dig_r	ext_hal_r	glut_med1_l	glut_med2_l	glut_med3_l	glut_min1_l	glut_min2_l	glut_min3_l	semimem_l	semiten_l	bifemlh_l	bifemsh_l	sar_l	add_long_l	add_brev_l	add_mag1_l	add_mag2_l	add_mag3_l	tfl_l	pect_l	grac_l	glut_max1_l	glut_max2_l	glut_max3_l	iliacus_l	psoas_l	quad_fem_l	gem_l	peri_l	rect_fem_l	vas_med_l	vas_int_l	vas_lat_l	med_gas_l	lat_gas_l	soleus_l	tib_post_l	flex_dig_l	flex_hal_l	tib_ant_l	per_brev_l	per_long_l	per_tert_l	ext_dig_l	ext_hal_l	ercspn_r	ercspn_l	intobl_r	intobl_l	extobl_r	extobl_l	femur_lat_meniscii_r.femur_lat_r.force.X	femur_lat_meniscii_r.femur_lat_r.force.Y	femur_lat_meniscii_r.femur_lat_r.force.Z	femur_lat_meniscii_r.femur_lat_r.torque.X	femur_lat_meniscii_r.femur_lat_r.torque.Y	femur_lat_meniscii_r.femur_lat_r.torque.Z	femur_lat_meniscii_r.meniscus_lat_r.force.X	femur_lat_meniscii_r.meniscus_lat_r.force.Y	femur_lat_meniscii_r.meniscus_lat_r.force.Z	femur_lat_meniscii_r.meniscus_lat_r.torque.X	femur_lat_meniscii_r.meniscus_lat_r.torque.Y	femur_lat_meniscii_r.meniscus_lat_r.torque.Z	femur_med_meniscii_r.femur_med_r.force.X	femur_med_meniscii_r.femur_med_r.force.Y	femur_med_meniscii_r.femur_med_r.force.Z	femur_med_meniscii_r.femur_med_r.torque.X	femur_med_meniscii_r.femur_med_r.torque.Y	femur_med_meniscii_r.femur_med_r.torque.Z	femur_med_meniscii_r.meniscus_med_r.force.X	femur_med_meniscii_r.meniscus_med_r.force.Y	femur_med_meniscii_r.meniscus_med_r.force.Z	femur_med_meniscii_r.meniscus_med_r.torque.X	femur_med_meniscii_r.meniscus_med_r.torque.Y	femur_med_meniscii_r.meniscus_med_r.torque.Z	femur_med_tibia_r.tibia_upper_r.force.X	femur_med_tibia_r.tibia_upper_r.force.Y	femur_med_tibia_r.tibia_upper_r.force.Z	femur_med_tibia_r.tibia_upper_r.torque.X	femur_med_tibia_r.tibia_upper_r.torque.Y	femur_med_tibia_r.tibia_upper_r.torque.Z	femur_med_tibia_r.femur_med_r.force.X	femur_med_tibia_r.femur_med_r.force.Y	femur_med_tibia_r.femur_med_r.force.Z	femur_med_tibia_r.femur_med_r.torque.X	femur_med_tibia_r.femur_med_r.torque.Y	femur_med_tibia_r.femur_med_r.torque.Z	femur_lat_tibia_r.tibia_upper_r.force.X	femur_lat_tibia_r.tibia_upper_r.force.Y	femur_lat_tibia_r.tibia_upper_r.force.Z	femur_lat_tibia_r.tibia_upper_r.torque.X	femur_lat_tibia_r.tibia_upper_r.torque.Y	femur_lat_tibia_r.tibia_upper_r.torque.Z	femur_lat_tibia_r.femur_lat_r.force.X	femur_lat_tibia_r.femur_lat_r.force.Y	femur_lat_tibia_r.femur_lat_r.force.Z	femur_lat_tibia_r.femur_lat_r.torque.X	femur_lat_tibia_r.femur_lat_r.torque.Y	femur_lat_tibia_r.femur_lat_r.torque.Z	aACL_R	pACL_R	aPCL_R	pPCL_R	aMCL_R	mMCL_R	pMCL_R	aLCL_R	mLCL_R	pLCL_R	ground_prescribedForce_fx	ground_prescribedForce_fy	ground_prescribedForce_fz	ground_prescribedForce_px	ground_prescribedForce_py	ground_prescribedForce_pz
      0.05586542	     24.40589901	     33.65905031	    147.90563694	      7.49483097	      8.50269907	     14.87267175	    381.81047342	    212.27671881	    375.09545146	    296.01334164	    101.88153794	     14.27478708	     12.33751957	     23.92050546	     20.05327427	     88.13007413	      0.00000000	      4.79535803	    105.31789960	     16.92702113	     25.44502786	     64.88985150	     15.66578109	     15.11046945	    192.79789929	     38.40440165	     78.07144759	     15.38404633	     39.70882073	     40.24041469	     51.95188567	     43.13410724	     24.24117820	      0.00000000	      1.98015581	      8.70709037	      8.17449776	     42.48693375	     19.90153306	     40.96789753	     10.47177553	     24.25161600	      7.40365716	     24.50163516	     17.21895828	     18.65484669	      7.74774042	      8.78024970	     10.34614888	     30.94822262	     13.17419657	     26.88785428	     21.52120575	      4.40711049	     17.25660042	     11.95156832	      8.83963070	      7.60282490	     13.21429690	      9.75950648	      6.57256582	      4.60102347	     11.17404103	     17.01350603	     12.88564367	     44.19951966	     37.36160171	     10.80101062	      6.40841702	     15.03724436	     37.12175067	     20.67758556	     24.06067471	     25.89194934	     52.98421097	     24.69675431	    114.64685664	     79.08892682	     12.51959729	     12.37666308	     28.87770351	     15.63459486	     36.94465509	      5.77130456	     18.47564415	      5.75678662	     73.03013091	     73.03013091	     28.38669000	     28.38669000	     44.66643594	     44.66643594	   -315.55847831	    151.24251121	    -55.12545097	     -4.15644012	     14.59733070	     62.86039645	    315.55847831	   -151.24251121	     55.12545097	      4.54278397	      7.82694924	     -3.54858544	   -792.10816428	    -53.04534733	    138.95728144	      0.83936865	    -40.26917503	    -15.78743682	    792.10816428	     53.04534733	   -138.95728144	     -0.38294301	     -9.33814816	     -0.54779358	    508.82395875	   -139.52421034	     54.44459137	     -2.07374707	     -9.86804252	     -5.90194882	   -508.82395875	    139.52421034	    -54.44459137	      2.41239128	     32.87460077	     61.69558255	      0.00000000	      0.00000000	      0.00000000	      0.00000000	      0.00000000	      0.00000000	      0.00000000	      0.00000000	      0.00000000	      0.00000000	      0.00000000	      0.00000000	     -7.94190786	      0.00000000	     32.76767622	     49.02081930	      0.00000000	      0.00000000	      0.00000000	     -1.50128997	      0.00000000	      0.00000000	      0.00000000	      0.00000000	      0.00000000	      0.00000000	      0.00000000	      0.00000000
      0.05646419	     24.26907310	     33.57131699	    147.83470682	      7.45468486	      8.45625687	     14.81710452	    375.92718282	    211.07919227	    370.86915363	    293.76085910	    101.79025113	     14.19562765	     12.27189861	     23.86271634	     19.99873976	     88.07108575	      0.00000000	      4.76953465	    105.11618432	     16.83265159	     25.30301188	     64.81575452	     15.57855684	     15.02532045	    192.76383935	     38.38611453	     78.01698292	     15.39532303	     41.23544571	     42.02536304	     51.87483055	     42.36788667	     23.66570254	      0.00000000	      1.64855243	      8.46551646	      7.91674220	     42.29259467	     19.79283872	     40.70281343	     11.89056724	     24.14440310	      7.38143673	     24.36426940	     17.12394391	     18.55118598	      7.70621462	      8.73411583	     10.28804942	     30.78780631	     13.10012380	     26.74362656	     21.40374287	      4.38358307	     17.16076889	     11.88801705	      8.79084349	      7.56036428	     13.14071010	      9.71724072	      6.53710165	      4.57611538	     11.11191180	     16.91889167	     12.81365853	     44.01914329	     37.16203936	     10.74215979	      6.37899473	     14.96071452	     36.92061600	     20.56117460	     23.92517773	     25.74572763	     52.73118047	     24.57798852	    114.06253844	     78.83856772	     12.44701722	     12.30258844	     28.71881233	     15.55113135	     36.77117364	      5.74021291	     18.40467315	      5.73604584	     72.63803407	     72.63803407	     28.22758428	     28.22758428	     44.51590984	     44.51590984	   -295.81049747	    146.41251091	    -54.40597506	     -4.01374537	     14.80250764	     60.85675362	    295.81049747	   -146.41251091	     54.40597506	      4.37576127	      7.25721661	     -3.45990498	   -750.39184112	    -41.57057999	    130.38634839	      1.08821986	    -37.42413159	    -11.50006377	    750.39184112	     41.57057999	   -130.38634839	     -0.60989751	     -9.09309574	     -0.57803297	    503.74465768	   -141.10769521	     54.81159695	     -2.11112297	     -9.80749194	     -5.84220337	   -503.74465768	    141.10769521	    -54.81159695	      2.44800539	     32.92686499	     62.26491134	      0.00000000	      0.00000000	      0.00000000	      0.00000000	      0.00000000	      0.00000000	      0.00000000	      0.00000000	      0.00000000	      0.00000000	      0.00000000	      0.00000000	     -6.90133525	      0.00000000	     33.30444908	     50.29902801	      0.00000000	      0.00000000	      0.00000000	     -0.72289315	      0.00000000	      0.00000000	      0.00000000	      0.00000000	      0.00000000	      0.00000000	      0.00000000	      0.00000000
      0.05700610	     24.14615352	     33.49258227	    147.77104410	      7.41864803	      8.41456986	     14.76722108	    370.76811311	    210.04981504	    367.16205795	    292.13580981	    101.74534685	     14.12457025	     12.21299324	     23.81085589	     19.94980214	     88.01815957	      0.00000000	      4.74635542	    104.96771403	     16.74793032	     25.17551595	     64.74926372	     15.50026451	     14.94886500	    192.73326548	     38.36970406	     77.96812460	     15.48600159	     37.78325101	     40.42235227	     52.17947225	     41.72458179	     23.16376063	      0.00000000	      1.35515490	      8.24919526	      7.68616625	     42.10830623	     19.69210525	     40.45958403	     10.46867443	     24.04503777	      7.36010112	     24.24086454	     17.03865593	     18.45813187	      7.66893940	      8.69270727	     10.23586008	     30.64321355	     13.03359330	     26.61376177	     21.29830771	      4.36246366	     17.07474179	     11.83096954	      8.74705125	      7.52224485	     13.07456350	      9.67913400	      6.50526830	      4.55375738	     11.05614168	     16.83395994	     12.74903132	     43.85724308	     36.98274615	     10.68933457	      6.35256591	     14.89167661	     36.73957425	     20.45664666	     23.80348059	     25.61438958	     52.50246657	     24.47064886	    113.53540191	     78.61196481	     12.38156400	     12.23586662	     28.57588614	     15.47594283	     36.61417295	      5.71229246	     18.34012747	      5.71712856	     72.28607362	     72.28607362	     28.08472699	     28.08472699	     44.38081022	     44.38081022	   -308.96808162	    154.18015288	    -58.53625151	     -4.22686611	     16.16597097	     64.09436511	    308.96808162	   -154.18015288	     58.53625151	      4.59507977	      7.52437229	     -3.63927295	   -782.48512109	    -51.27829013	    138.14975416	      1.04010510	    -39.87582599	    -15.39140121	    782.48512109	     51.27829013	   -138.14975416	     -0.55086587	     -9.46681216	     -0.15248238	    522.83387295	   -148.63508579	     57.12882150	     -2.23618418	    -10.19411789	     -6.04464281	   -522.83387295	    148.63508579	    -57.12882150	      2.58755842	     34.27639001	     65.48504678	      0.00000000	      0.00000000	      0.00000000	      0.00000000	      0.00000000	      0.00000000	      0.00000000	      0.00000000	      0.00000000	      0.00000000	      0.00000000	      0.00000000	     -8.26306730	      0.00000000	     33.44285982	     49.61703490	      0.00000000	      0.00000000	      0.00000000	     -3.63297918	      0.00000000	      0.00000000	      0.00000000	      0.00000000	      0.00000000	      0.00000000	      0.00000000	      0.00000000
      0.05754801	     24.02409803	     33.41447525	    147.70788156	      7.38289061	      8.37320745	     14.71772170	    365.53548830	    208.95481305	    363.36656248	    290.19605453	    101.61189121	     14.05406361	     12.15454338	     23.75941020	     19.90125810	     87.96566641	      0.00000000	      4.72335676	    104.75311682	     16.66385623	     25.04899438	     64.68330879	     15.42258328	     14.87298315	    192.70292839	     38.35342532	     77.91967543	     15.44032159	     39.79170319	     42.05380165	     51.90955827	     41.07951989	     22.65395812	      0.00000000	      1.06695028	      8.03512092	      7.45761210	     41.95177397	     19.58391348	     40.20645571	     11.79260138	     23.95051158	      7.34032186	     24.11832689	     16.95403030	     18.36579614	      7.63195325	      8.65162272	     10.18404233	     30.49919567	     12.96754312	     26.48453868	     21.19369422	      4.34150779	     16.98937782	     11.77436314	      8.70359979	      7.48441672	     13.00884646	      9.64117006	      6.47368248	      4.53157322	     11.00080404	     16.74968551	     12.68489627	     43.69661216	     36.80470198	     10.63692056	      6.32632594	     14.82286084	     36.55948493	     20.35290074	     23.68266529	     25.48399578	     52.27406972	     24.36346967	    113.00994282	     78.38540146	     12.31635711	     12.16946731	     28.43379633	     15.40109224	     36.45721414	      5.68457858	     18.27528033	      5.69807041	     71.93684384	     71.93684384	     27.94294447	     27.94294447	     44.24677748	     44.24677748	   -296.87679342	    149.13184797	    -58.50889306	     -4.09258005	     16.46671662	     61.99337756	    296.87679342	   -149.13184797	     58.50889306	      4.43227482	      7.15709470	     -3.50286498	   -736.54653384	    -54.29882144	    136.91840836	      0.87863121	    -40.51280385	    -17.29735170	    736.54653384	     54.29882144	   -136.91840836	     -0.39495424	     -8.55991089	      0.43811408	    518.28857033	   -150.59178838	     57.20846396	     -2.27858124	    -10.12703303	     -6.00971041	   -518.28857033	    150.59178838	    -57.20846396	      2.63144196	     34.21507568	     66.22069152	      0.00000000	      0.00000000	      0.00000000	      0.00000000	      0.00000000	      0.00000000	      0.00000000	      0.00000000	      0.00000000	      0.00000000	      0.00000000	      0.00000000	     -7.19123754	      0.00000000	     34.53497378	     50.94204252	      0.00000000	      0.00000000	      0.00000000	     -3.04755596	      0.00000000	      0.00000000	      0.00000000	      0.00000000	      0.00000000	      0.00000000	      0.00000000	      0.00000000
